<?xml version="1.0" encoding="utf-8"?>
<!-- Generator: Adobe Illustrator 24.1.1, SVG Export Plug-In . SVG Version: 6.00 Build 0)  -->
<svg  xmlns="http://www.w3.org/2000/svg" height="24" width="24" 
	 viewBox="0 0 512 512" >

	<path fill="white" d="M0,242.2c0-28.4,8.9-53.6,26.7-75.8c17.8-22.2,40.3-36.3,67.4-42.7c7.7-33.6,25.2-61.3,52.1-83
		C173.1,18.9,204,8.3,238.8,8.3c34.1,0,64.2,10.6,90.9,31.6c26.7,21,44,48.2,51.9,81.3h7.9c22,0,42.5,5.4,61.3,16.1
		c18.8,10.6,33.8,25.4,44.7,44c10.9,18.5,16.6,39,16.6,61c0,21.7-5.2,41.7-15.6,60.3c-10.4,18.5-24.7,33.3-42.7,44.5
		c-18,11.1-37.8,17-59.3,17.5c-3.2,0-4.9-1.5-4.9-4.2v-32.9c0-3,1.7-4.4,4.9-4.4c21-1,39-9.4,53.8-25.2
		c14.8-15.8,22.2-34.3,22.2-55.8c0-21.5-8.2-40-24.2-55.8c-16.1-15.8-35.1-23.7-57.1-23.7h-39.8c-3,0-4.4-1.5-4.4-4.2l-2-14.3
		c-2.7-26.7-14.3-49.1-34.3-66.9c-20.2-18-43.5-26.9-70.4-26.9c-26.9,0-50.6,8.9-70.4,26.9c-20,18-31.1,40.3-33.6,66.9l-1.7,13.1
		c0,3-1.7,4.7-4.9,4.7l-13.1,0.7c-20.5,2.5-37.8,11.4-51.9,26.4c-14.1,15.1-21,32.9-21,53.4c0,21.5,7.4,40,22.2,55.8
		c14.8,15.8,32.9,24.2,53.8,25.2c2.7,0,4.2,1.5,4.2,4.4v32.9c0,2.7-1.5,4.2-4.2,4.2c-33.1-1.5-61-14.1-84-37.8
		C10.9,303.2,0,275,0,242.2z M132.1,407.4l1-4.9L173.4,260c1.5-4.7,4.2-8.4,7.9-10.9c3.7-2.5,7.7-3.7,11.4-3.7l5.9,0.7
		c5.9,1,10.4,4.2,13.3,9.1c3,4.9,3.7,10.4,2,16.5l-40.3,141.5c-3,10.6-9.9,15.8-20.2,15.8l-2.7-0.5l-2.5-0.7
		c-5.4-1.5-9.4-4.2-12.1-8.2C133.4,415.5,132.1,411.6,132.1,407.4z M196.8,476.8l60.3-216.6c1-4.7,3.5-8.4,7.4-10.9
		c3.9-2.5,7.9-3.7,12.1-3.7l6.7,0.7c5.4,1.5,9.4,4.7,12.1,9.6c2.7,4.9,3.2,10.1,1.7,15.8l-60,216.8c-1,4.2-3.2,7.7-7.2,10.6
		c-3.9,3-7.9,4.4-12.6,4.4l-6.2-1.2c-4.9-1.2-9.1-4.4-12.8-9.6C195.6,488.4,195.1,483.2,196.8,476.8z M298.8,407.9
		c0-1,0.3-2.7,1-5.7l40.3-142.5c1.5-4.7,4-8.4,7.4-10.9c3.7-2.5,7.4-3.7,11.4-3.7l6.4,0.7c5.2,1.5,8.9,4,11.4,7.7
		c2.5,3.7,3.7,7.7,3.7,11.6l-0.5,3.4l-0.5,3l-40.3,141.5c-1,4.7-3.2,8.6-6.9,11.4c-3.7,2.7-7.9,4.2-12.6,4.2l-5.9-1.2
		c-4.9-1.5-8.6-4-11.4-7.9C300.1,415.8,298.8,411.8,298.8,407.9z"/>

</svg>
